<svg width="103" height="28" viewBox="0 0 103 28" fill="none" xmlns="http://www.w3.org/2000/svg">
<g clip-path="url(#clip0_1641_850)">
<path d="M7.92414 6.42801L5.9091 5H1.99414L3.45433 6.42801H7.92414Z" fill="#AD46FF"/>
<path d="M7.92414 19.6216V6.77584H3.45433L1.99414 8.20385H6.28676C6.33461 8.20385 6.37859 8.22156 6.41222 8.25444C6.44584 8.28733 6.46395 8.3316 6.46395 8.37713V21.0483L7.92414 19.6203V19.6216Z" fill="#AD46FF"/>
<path d="M1.56385 5.07229L0 6.60168L1.56385 8.13107L3.12771 6.60168L1.56385 5.07229Z" fill="#AD46FF"/>
<path d="M10.0967 8.20385H14.5406L15.9995 6.77584H10.0967V8.20385Z" fill="#AD46FF"/>
<path d="M14.5411 5H8.28125V19.6216L9.74144 21.0496V6.42801H15.9999L14.5411 5Z" fill="#AD46FF"/>
<path d="M8.10292 19.9392L6.53906 21.4685L8.10292 22.9979L9.66677 21.4685L8.10292 19.9392Z" fill="#AD46FF"/>
</g>
<path d="M19.6465 21L16.6777 10.0909H19.7388L21.4292 17.4205H21.5286L23.29 10.0909H26.2942L28.084 17.3778H28.1763L29.8382 10.0909H32.8922L29.9306 21H26.7275L24.8525 14.1392H24.7175L22.8425 21H19.6465ZM34.5062 21V10.0909H37.5318V21H34.5062ZM36.0261 8.68466C35.5763 8.68466 35.1904 8.53551 34.8684 8.23722C34.5512 7.93419 34.3926 7.57197 34.3926 7.15057C34.3926 6.7339 34.5512 6.37642 34.8684 6.07812C35.1904 5.77509 35.5763 5.62358 36.0261 5.62358C36.4759 5.62358 36.8594 5.77509 37.1767 6.07812C37.4986 6.37642 37.6596 6.7339 37.6596 7.15057C37.6596 7.57197 37.4986 7.93419 37.1767 8.23722C36.8594 8.53551 36.4759 8.68466 36.0261 8.68466ZM42.981 14.6932V21H39.9554V10.0909H42.839V12.0156H42.9668C43.2083 11.3812 43.6131 10.8793 44.1813 10.5099C44.7495 10.1359 45.4384 9.94886 46.248 9.94886C47.0056 9.94886 47.6661 10.1146 48.2296 10.446C48.793 10.7775 49.231 11.2509 49.5435 11.8665C49.856 12.4773 50.0123 13.2064 50.0123 14.054V21H46.9867V14.5938C46.9914 13.9261 46.821 13.4053 46.4753 13.0312C46.1297 12.6525 45.6538 12.4631 45.0478 12.4631C44.6406 12.4631 44.2807 12.5507 43.9682 12.7259C43.6605 12.901 43.419 13.1567 43.2438 13.4929C43.0733 13.8243 42.9857 14.2244 42.981 14.6932ZM57.0826 21V6.45455H60.1578V18.4645H66.3936V21H57.0826ZM68.3734 21V10.0909H71.399V21H68.3734ZM69.8933 8.68466C69.4435 8.68466 69.0576 8.53551 68.7356 8.23722C68.4184 7.93419 68.2598 7.57197 68.2598 7.15057C68.2598 6.7339 68.4184 6.37642 68.7356 6.07812C69.0576 5.77509 69.4435 5.62358 69.8933 5.62358C70.3431 5.62358 70.7266 5.77509 71.0439 6.07812C71.3658 6.37642 71.5268 6.7339 71.5268 7.15057C71.5268 7.57197 71.3658 7.93419 71.0439 8.23722C70.7266 8.53551 70.3431 8.68466 69.8933 8.68466ZM82.8993 13.2017L80.1294 13.3722C80.0821 13.1354 79.9803 12.9223 79.824 12.733C79.6678 12.5388 79.4618 12.3849 79.2061 12.2713C78.9552 12.1529 78.6545 12.0938 78.3042 12.0938C77.8354 12.0938 77.44 12.1932 77.1181 12.392C76.7961 12.5862 76.6351 12.8466 76.6351 13.1733C76.6351 13.4337 76.7393 13.6539 76.9476 13.8338C77.156 14.0137 77.5134 14.1581 78.0201 14.267L79.9945 14.6648C81.0551 14.8826 81.8458 15.233 82.3667 15.7159C82.8875 16.1989 83.1479 16.8333 83.1479 17.6193C83.1479 18.3343 82.9372 18.9616 82.5158 19.5014C82.0991 20.0412 81.5262 20.4626 80.7971 20.7656C80.0726 21.0639 79.2369 21.2131 78.29 21.2131C76.8458 21.2131 75.6953 20.9124 74.8382 20.3111C73.986 19.705 73.4864 18.8812 73.3397 17.8395L76.3155 17.6832C76.4055 18.1236 76.6233 18.4598 76.9689 18.6918C77.3146 18.919 77.7573 19.0327 78.2971 19.0327C78.8274 19.0327 79.2535 18.9309 79.5755 18.7273C79.9022 18.5189 80.0679 18.2514 80.0726 17.9247C80.0679 17.6501 79.9519 17.4252 79.7246 17.25C79.4973 17.0701 79.147 16.9328 78.6735 16.8381L76.7843 16.4616C75.7189 16.2486 74.9258 15.8793 74.405 15.3537C73.8889 14.8281 73.6309 14.1581 73.6309 13.3438C73.6309 12.643 73.8203 12.0393 74.199 11.5327C74.5826 11.026 75.12 10.6354 75.8113 10.3608C76.5073 10.0862 77.3217 9.94886 78.2544 9.94886C79.6323 9.94886 80.7166 10.2401 81.5073 10.8224C82.3027 11.4048 82.7667 12.1979 82.8993 13.2017ZM90.8556 10.0909V12.3636H84.286V10.0909H90.8556ZM85.7775 7.47727H88.8031V17.6477C88.8031 17.9271 88.8457 18.1449 88.9309 18.3011C89.0162 18.4527 89.1345 18.5592 89.286 18.6207C89.4423 18.6823 89.6222 18.7131 89.8258 18.7131C89.9679 18.7131 90.1099 18.7012 90.252 18.6776C90.394 18.6491 90.5029 18.6278 90.5787 18.6136L91.0545 20.8651C90.903 20.9124 90.6899 20.9669 90.4153 21.0284C90.1407 21.0947 89.8069 21.1349 89.4139 21.1491C88.6847 21.1776 88.0455 21.0805 87.4963 20.858C86.9518 20.6354 86.528 20.2898 86.225 19.821C85.9219 19.3523 85.7728 18.7604 85.7775 18.0455V7.47727ZM101.767 13.2017L98.9966 13.3722C98.9493 13.1354 98.8475 12.9223 98.6912 12.733C98.535 12.5388 98.329 12.3849 98.0733 12.2713C97.8224 12.1529 97.5217 12.0938 97.1713 12.0938C96.7026 12.0938 96.3072 12.1932 95.9853 12.392C95.6633 12.5862 95.5023 12.8466 95.5023 13.1733C95.5023 13.4337 95.6065 13.6539 95.8148 13.8338C96.0231 14.0137 96.3806 14.1581 96.8873 14.267L98.8617 14.6648C99.9223 14.8826 100.713 15.233 101.234 15.7159C101.755 16.1989 102.015 16.8333 102.015 17.6193C102.015 18.3343 101.804 18.9616 101.383 19.5014C100.966 20.0412 100.393 20.4626 99.6642 20.7656C98.9398 21.0639 98.1041 21.2131 97.1571 21.2131C95.713 21.2131 94.5624 20.9124 93.7054 20.3111C92.8532 19.705 92.3536 18.8812 92.2069 17.8395L95.1827 17.6832C95.2727 18.1236 95.4905 18.4598 95.8361 18.6918C96.1818 18.919 96.6245 19.0327 97.1642 19.0327C97.6945 19.0327 98.1207 18.9309 98.4426 18.7273C98.7694 18.5189 98.9351 18.2514 98.9398 17.9247C98.9351 17.6501 98.8191 17.4252 98.5918 17.25C98.3645 17.0701 98.0141 16.9328 97.5407 16.8381L95.6515 16.4616C94.5861 16.2486 93.793 15.8793 93.2722 15.3537C92.7561 14.8281 92.498 14.1581 92.498 13.3438C92.498 12.643 92.6874 12.0393 93.0662 11.5327C93.4498 11.026 93.9872 10.6354 94.6784 10.3608C95.3745 10.0862 96.1889 9.94886 97.1216 9.94886C98.4995 9.94886 99.5837 10.2401 100.374 10.8224C101.17 11.4048 101.634 12.1979 101.767 13.2017Z" fill="#F5F5F5"/>
<defs>
<clipPath id="clip0_1641_850">
<rect width="16" height="18" fill="white" transform="translate(0 5)"/>
</clipPath>
</defs>
</svg>
