<svg width="71" height="81" viewBox="0 0 71 81" fill="none" xmlns="http://www.w3.org/2000/svg">
<g clip-path="url(#clip0_1642_734)">
<path d="M35.1643 6.42604L26.2226 0H8.84991L15.3295 6.42604H35.1643Z" fill="#AD46FF"/>
<path d="M35.1643 65.7972V7.99133H15.3295L8.84991 14.4174H27.8984C28.1108 14.4174 28.3059 14.4971 28.4551 14.645C28.6043 14.793 28.6847 14.9922 28.6847 15.1972V72.2176L35.1643 65.7916V65.7972Z" fill="#AD46FF"/>
<path d="M6.93924 0.325265L-0.000366211 7.20752L6.93924 14.0898L13.8788 7.20752L6.93924 0.325265Z" fill="#AD46FF"/>
<path d="M44.8062 14.4174H64.5261L71 7.99133H44.8062V14.4174Z" fill="#AD46FF"/>
<path d="M64.5262 0H36.7483V65.7972L43.2279 72.2232V6.42604H71L64.5262 0Z" fill="#AD46FF"/>
<path d="M35.9578 67.2261L29.0182 74.1084L35.9578 80.9906L42.8974 74.1084L35.9578 67.2261Z" fill="#AD46FF"/>
</g>
<defs>
<clipPath id="clip0_1642_734">
<rect width="71" height="81" fill="white"/>
</clipPath>
</defs>
</svg>
