<svg width="361" height="101" viewBox="0 0 361 101" fill="none" xmlns="http://www.w3.org/2000/svg">
<g clip-path="url(#clip0_1608_11)">
<path d="M60.6643 6.42604L51.7226 0H34.3499L40.8295 6.42604H60.6643Z" fill="#9810FA"/>
<path d="M60.6643 65.7972V7.99127H40.8295L34.3499 14.4173H53.3984C53.6108 14.4173 53.8059 14.497 53.9551 14.645C54.1043 14.793 54.1847 14.9922 54.1847 15.1971V72.2175L60.6643 65.7915V65.7972Z" fill="#9810FA"/>
<path d="M32.4392 0.325296L25.4996 7.20755L32.4392 14.0898L39.3788 7.20755L32.4392 0.325296Z" fill="#9810FA"/>
<path d="M70.3062 14.4173H90.0261L96.5 7.99127H70.3062V14.4173Z" fill="#9810FA"/>
<path d="M90.0262 0H62.2483V65.7972L68.7279 72.2232V6.42604H96.5L90.0262 0Z" fill="#9810FA"/>
<path d="M61.4578 67.2262L54.5182 74.1085L61.4578 80.9907L68.3974 74.1085L61.4578 67.2262Z" fill="#9810FA"/>
</g>
<path d="M88.5781 73L79.6719 40.2727H88.8551L93.9261 62.2614H94.2244L99.5085 40.2727H108.521L113.891 62.1335H114.168L119.153 40.2727H128.315L119.43 73H109.821L104.196 52.4176H103.791L98.1662 73H88.5781ZM133.157 73V40.2727H142.234V73H133.157ZM137.717 36.054C136.368 36.054 135.21 35.6065 134.244 34.7116C133.292 33.8026 132.816 32.7159 132.816 31.4517C132.816 30.2017 133.292 29.1293 134.244 28.2344C135.21 27.3253 136.368 26.8707 137.717 26.8707C139.066 26.8707 140.217 27.3253 141.169 28.2344C142.135 29.1293 142.618 30.2017 142.618 31.4517C142.618 32.7159 142.135 33.8026 141.169 34.7116C140.217 35.6065 139.066 36.054 137.717 36.054ZM158.582 54.0795V73H149.505V40.2727H158.156V46.0469H158.539C159.263 44.1435 160.478 42.6378 162.183 41.5298C163.887 40.4077 165.954 39.8466 168.383 39.8466C170.656 39.8466 172.637 40.3438 174.327 41.3381C176.018 42.3324 177.332 43.7528 178.269 45.5994C179.207 47.4318 179.675 49.6193 179.675 52.1619V73H170.599V53.7812C170.613 51.7784 170.102 50.2159 169.065 49.0938C168.028 47.9574 166.6 47.3892 164.782 47.3892C163.56 47.3892 162.481 47.652 161.543 48.1776C160.62 48.7031 159.896 49.4702 159.37 50.4787C158.859 51.473 158.596 52.6733 158.582 54.0795ZM200.886 73V29.3636H210.112V65.3935H228.82V73H200.886ZM234.759 73V40.2727H243.836V73H234.759ZM239.319 36.054C237.969 36.054 236.811 35.6065 235.846 34.7116C234.894 33.8026 234.418 32.7159 234.418 31.4517C234.418 30.2017 234.894 29.1293 235.846 28.2344C236.811 27.3253 237.969 26.8707 239.319 26.8707C240.668 26.8707 241.819 27.3253 242.77 28.2344C243.736 29.1293 244.219 30.2017 244.219 31.4517C244.219 32.7159 243.736 33.8026 242.77 34.7116C241.819 35.6065 240.668 36.054 239.319 36.054ZM278.337 49.6051L270.027 50.1165C269.885 49.4062 269.58 48.767 269.111 48.1989C268.642 47.6165 268.024 47.1548 267.257 46.8139C266.504 46.4588 265.602 46.2812 264.551 46.2812C263.145 46.2812 261.959 46.5795 260.993 47.1761C260.027 47.7585 259.544 48.5398 259.544 49.5199C259.544 50.3011 259.857 50.9616 260.482 51.5014C261.107 52.0412 262.179 52.4744 263.699 52.8011L269.622 53.9943C272.804 54.6477 275.176 55.6989 276.739 57.1477C278.301 58.5966 279.082 60.5 279.082 62.858C279.082 65.0028 278.45 66.8849 277.186 68.5043C275.936 70.1236 274.217 71.3878 272.03 72.2969C269.857 73.1918 267.349 73.6392 264.509 73.6392C260.176 73.6392 256.724 72.7372 254.153 70.9332C251.597 69.1151 250.098 66.6435 249.658 63.5185L258.585 63.0497C258.855 64.3707 259.509 65.3793 260.545 66.0753C261.582 66.7571 262.911 67.098 264.53 67.098C266.121 67.098 267.399 66.7926 268.365 66.1818C269.345 65.5568 269.842 64.7543 269.857 63.7741C269.842 62.9503 269.494 62.2756 268.812 61.75C268.131 61.2102 267.08 60.7983 265.659 60.5142L259.991 59.3849C256.795 58.7457 254.416 57.6378 252.854 56.0611C251.305 54.4844 250.531 52.4744 250.531 50.0312C250.531 47.929 251.099 46.1179 252.236 44.598C253.386 43.0781 254.999 41.9062 257.072 41.0824C259.161 40.2585 261.604 39.8466 264.402 39.8466C268.536 39.8466 271.788 40.7202 274.161 42.4673C276.547 44.2145 277.939 46.5937 278.337 49.6051ZM302.206 40.2727V47.0909H282.497V40.2727H302.206ZM286.971 32.4318H296.048V62.9432C296.048 63.7812 296.176 64.4347 296.431 64.9034C296.687 65.358 297.042 65.6776 297.497 65.8622C297.966 66.0469 298.505 66.1392 299.116 66.1392C299.542 66.1392 299.968 66.1037 300.395 66.0327C300.821 65.9474 301.147 65.8835 301.375 65.8409L302.802 72.5952C302.348 72.7372 301.708 72.9006 300.885 73.0852C300.061 73.2841 299.059 73.4048 297.88 73.4474C295.693 73.5327 293.775 73.2415 292.127 72.5739C290.494 71.9062 289.223 70.8693 288.314 69.4631C287.404 68.0568 286.957 66.2812 286.971 64.1364V32.4318ZM334.938 49.6051L326.629 50.1165C326.487 49.4062 326.181 48.767 325.712 48.1989C325.244 47.6165 324.626 47.1548 323.859 46.8139C323.106 46.4588 322.204 46.2812 321.153 46.2812C319.746 46.2812 318.56 46.5795 317.594 47.1761C316.629 47.7585 316.146 48.5398 316.146 49.5199C316.146 50.3011 316.458 50.9616 317.083 51.5014C317.708 52.0412 318.781 52.4744 320.3 52.8011L326.224 53.9943C329.406 54.6477 331.778 55.6989 333.34 57.1477C334.903 58.5966 335.684 60.5 335.684 62.858C335.684 65.0028 335.052 66.8849 333.788 68.5043C332.538 70.1236 330.819 71.3878 328.631 72.2969C326.458 73.1918 323.951 73.6392 321.11 73.6392C316.778 73.6392 313.326 72.7372 310.755 70.9332C308.198 69.1151 306.7 66.6435 306.259 63.5185L315.187 63.0497C315.457 64.3707 316.11 65.3793 317.147 66.0753C318.184 66.7571 319.512 67.098 321.131 67.098C322.722 67.098 324.001 66.7926 324.967 66.1818C325.947 65.5568 326.444 64.7543 326.458 63.7741C326.444 62.9503 326.096 62.2756 325.414 61.75C324.732 61.2102 323.681 60.7983 322.261 60.5142L316.593 59.3849C313.397 58.7457 311.018 57.6378 309.455 56.0611C307.907 54.4844 307.133 52.4744 307.133 50.0312C307.133 47.929 307.701 46.1179 308.837 44.598C309.988 43.0781 311.6 41.9062 313.674 41.0824C315.762 40.2585 318.205 39.8466 321.004 39.8466C325.137 39.8466 328.39 40.7202 330.762 42.4673C333.148 44.2145 334.54 46.5937 334.938 49.6051Z" fill="#F5F5F5"/>
<path d="M361 100.5H0V6.5H17.5V7.5H1V99.5H360V7.5H104.5V6.5H361V100.5Z" fill="white"/>
<defs>
<clipPath id="clip0_1608_11">
<rect width="71" height="81" fill="white" transform="translate(25.5)"/>
</clipPath>
</defs>
</svg>
